<svg xmlns="http://www.w3.org/2000/svg" xmlns:xlink="http://www.w3.org/1999/xlink" width="136" height="60.021" viewBox="0 0 136 60.021">
  <defs>
    <filter id="Tracé_324" x="0" y="0" width="136" height="60.021" filterUnits="userSpaceOnUse">
      <feOffset input="SourceAlpha"/>
      <feGaussianBlur stdDeviation="3" result="blur"/>
      <feFlood flood-opacity="0.161"/>
      <feComposite operator="in" in2="blur"/>
      <feComposite in="SourceGraphic"/>
    </filter>
  </defs>
  <g id="Map_pointer" data-name="Map pointer" transform="translate(9 9)">
    <g transform="matrix(1, 0, 0, 1, -9, -9)" filter="url(#Tracé_324)">
      <g id="Tracé_324-2" data-name="Tracé 324" transform="translate(9 9)" fill="#fff">
        <path d="M5,0H113a5,5,0,0,1,5,5V30a5,5,0,0,1-5,5H64.126l-4.31,7.021L54.295,35H5a5,5,0,0,1-5-5V5A5,5,0,0,1,5,0Z" stroke="none"/>
        <path d="M 5 1.000003814697266 C 2.794403076171875 1.000003814697266 1 2.794403076171875 1 5.000003814697266 L 1 30.00000381469727 C 1 32.20560455322266 2.794403076171875 34.00000381469727 5 34.00000381469727 L 54.78076934814453 34.00000381469727 L 59.71458053588867 40.27487182617188 L 63.56645965576172 34.00000381469727 L 113 34.00000381469727 C 115.2055969238281 34.00000381469727 117 32.20560455322266 117 30.00000381469727 L 117 5.000003814697266 C 117 2.794403076171875 115.2055969238281 1.000003814697266 113 1.000003814697266 L 5 1.000003814697266 M 5 3.814697265625e-06 L 113 3.814697265625e-06 C 115.7614135742188 3.814697265625e-06 118 2.238571166992188 118 5.000003814697266 L 118 30.00000381469727 C 118 32.76142120361328 115.7614135742188 35.00000381469727 113 35.00000381469727 L 64.12598419189453 35.00000381469727 L 59.81579971313477 42.02148056030273 L 54.29495239257812 35.00000381469727 L 5 35.00000381469727 C 2.238571166992188 35.00000381469727 0 32.76142120361328 0 30.00000381469727 L 0 5.000003814697266 C 0 2.238571166992188 2.238571166992188 3.814697265625e-06 5 3.814697265625e-06 Z" stroke="none" fill="rgba(255,0,0,0.25)"/>
      </g>
    </g>
    <path id="Tracé_323" data-name="Tracé 323" d="M35.285-56.515c-4.059,0-5.184-1.873-5.184-4.309V-71.253h4.5v8.93c0,1.312.312,2.373,2.685,2.373h2.5c2.373,0,2.685-1.062,2.685-2.373v-8.93h4.5v10.429c0,2.436-1.124,4.309-5.183,4.309Zm-8.369-2.748a3.405,3.405,0,0,1-3.5,2.748H8.806v-3.435H20.984c.531,0,.687-.469.063-.718l-9.867-3.653c-2.186-.749-1.982-3.025-1.53-4.465.5-1.593,2.5-2.467,4.871-2.467H25.48v3.435H14.614c-.562,0-.812.593-.344.812l10.96,4.122c1.624.624,1.874,2.685,1.686,3.622M4.5-56.515H0V-71.253H4.5Zm58.439-11.3H51.585v-3.435H62.951c2.373,0,4.353.1,5.059,1.655a3.029,3.029,0,0,1-1.874,4.215l-9.4,4.809c-.437.187-.5.625.031.625H68.26v3.435H54.27c-2.436,0-2.873-1.374-3.06-2.311s.062-3,1.686-3.622L62.92-67.584c.219-.094.234-.234.016-.234M85.3-71.253h4.5v10.429c0,2.436-1.124,4.309-5.183,4.309h-6.5c-4.059,0-5.184-1.873-5.184-4.309V-71.253h4.5v8.93c0,1.312.312,2.373,2.685,2.373h2.5c2.373,0,2.685-1.062,2.685-2.373Z" transform="translate(14 81.253)" fill="red"/>
  </g>
</svg>
